<?xml version="1.0" encoding="UTF-8"?>
<svg width="1119px" height="139px" viewBox="0 0 1119 139" version="1.1" xmlns="http://www.w3.org/2000/svg" xmlns:xlink="http://www.w3.org/1999/xlink">
    <title>caohuilin</title>
    <g id="页面-1" stroke="none" stroke-width="1" fill="none" fill-rule="evenodd">
        <g id="shape" transform="translate(45.812309, 0.905119)">
            <g id="编组" transform="translate(0.634040, 0.094881)">
                <rect id="矩形" fill="#6B0726" fill-rule="nonzero" transform="translate(14.016386, 123.555545) rotate(-16.247600) translate(-14.016386, -123.555545) " x="3.36595956" y="112.905119" width="21.3008525" height="21.3008525"></rect>
                <path d="M238.453651,86.4 C238.453651,92.8 233.253651,98 226.853651,98 C220.453651,98 215.253651,92.8 215.253651,86.4 C215.253651,80 220.453651,74.8 226.853651,74.8 L226.853651,74.8 L226.853651,74.8 C233.253651,74.8 238.453651,80 238.453651,86.4 Z" id="路径" fill="#FFC0CB" fill-rule="nonzero"></path>
                <path d="M117.353651,101 C117.353651,105.965517 111.750203,110 104.853651,110 C97.9570991,110 92.3536508,105.965517 92.3536508,101 C92.3536508,96.0344828 97.9570991,92 104.853651,92 L104.853651,92 L104.853651,92 C111.750203,92 117.353651,96.0344828 117.353651,101 Z" id="路径" fill="#00FFC8" fill-rule="nonzero" transform="translate(104.853651, 101.000000) rotate(-10.000000) translate(-104.853651, -101.000000) "></path>
                <path d="M588.645904,60.5 C588.634736,61.3884837 588.618153,62.3341631 588.600733,63.3277914 C588.588547,64.0228709 588.57595,64.7413776 588.564503,65.4801562 C588.749172,68.6317297 588.741664,71.653717 588.57015,74.5616556 C588.588929,75.459033 588.616101,76.3253521 588.652103,77.196906 C588.982967,85.2065922 587.589231,94.0244033 586.192268,97.6447082 C584.27482,102.61388 582.353009,105.681579 580.317347,107.564599 C577.889985,109.809947 575.310358,110.332527 572.44165,110.459671 C571.752944,110.484084 571.47395,110.489835 571.194387,110.493509 C570.837627,110.496579 570.586952,110.498227 570.388939,110.499107 L570.173184,110.499837 C570.140298,110.499911 570.108664,110.499965 570.077854,110.500004 L569.604775,110.500045 C568.467386,110.499574 567.813811,110.495738 567.179809,110.475598 C564.099966,110.340523 561.428419,109.821366 558.963622,107.603642 C556.874036,105.723518 554.939545,102.648088 553.008897,97.6447082 C551.611934,94.0244033 550.218198,85.2065922 550.549062,77.196906 C550.585061,76.3254324 550.612232,75.4591932 550.632178,74.6014442 C550.459497,71.6535968 550.451994,68.6315825 550.634545,65.5193727 C550.623619,64.69118 550.610368,63.9232329 550.597587,63.182577 C550.581352,62.2417159 550.565874,61.3449654 550.55526,60.5 L550.55526,60.5 Z" id="形状结合" stroke="#FFA41B" fill="#FFA41B"></path>
                <path d="M1046.15168,63 C1046.13479,64.6391879 1046.09541,66.4893329 1046.06444,68.4879027 C1046.2495,71.6225476 1046.24191,74.6642174 1046.06928,77.5910951 C1046.08873,78.4445907 1046.1158,79.307822 1046.15168,80.1762695 C1046.48584,88.2658418 1045.06939,97.1689453 1043.65874,100.824707 C1039.32308,112.060826 1034.91144,113.717753 1029.45936,113.959357 L1029.04326,113.975118 C1028.76451,113.983988 1028.48303,113.989759 1028.19869,113.993491 L1027.77002,113.997692 C1027.4828,113.999651 1027.19266,114.0001 1026.89947,114.0001 C1026.79994,114.0001 1026.70022,113.99806 1026.60034,113.993993 L1026.30169,114.0001 L1026.30169,114.0001 C1025.56873,114.0001 1024.85478,113.997292 1024.1579,113.975118 L1023.7418,113.959357 C1018.28972,113.717753 1013.87809,112.060826 1009.54242,100.824707 C1008.13178,97.1689453 1006.71532,88.2658418 1007.04949,80.1762695 C1007.08536,79.307822 1007.11244,78.4445907 1007.13231,77.5898201 C1006.95925,74.6642174 1006.95166,71.6225476 1007.1354,68.4900948 C1007.10575,66.4893329 1007.06637,64.6391879 1007.04949,63 Z" id="形状结合" fill="#FF1D25" transform="translate(1026.600583, 88.500050) rotate(180.000000) translate(-1026.600583, -88.500050) "></path>
                <rect id="矩形" fill="#05F1FF" fill-rule="nonzero" x="788.453651" y="27.8" width="23" height="83"></rect>
                <rect id="矩形" fill="#0597FF" fill-rule="nonzero" transform="translate(456.453651, 70.300000) rotate(90.000000) translate(-456.453651, -70.300000) " x="447.953651" y="51.3" width="17" height="38"></rect>
                <circle id="椭圆形" fill="#15D084" cx="681.553651" cy="16" r="16"></circle>
                <circle id="椭圆形" fill="#F3A512" cx="909.553651" cy="16" r="16"></circle>
            </g>
        </g>
    </g>
</svg>